<?xml version="1.0" encoding="utf-8"?>
<!-- Generator: Adobe Illustrator 26.0.3, SVG Export Plug-In . SVG Version: 6.00 Build 0)  -->
<svg version="1.1" id="Layer_1" xmlns="http://www.w3.org/2000/svg" xmlns:xlink="http://www.w3.org/1999/xlink" x="0px" y="0px"
	 viewBox="0 0 1313.51 387.46" style="enable-background:new 0 0 1313.51 387.46;" xml:space="preserve">
<path d="M816.95,135.48h-0.58c-8.46,0-15.34,6.88-15.34,15.34v67.35c0.28,4.94,2.11,43.12-13.7,61.67
	c-8.79,10.32-21.06,14.37-33.32,14.43c-12.26-0.06-24.53-4.11-33.32-14.43c-15.81-18.55-13.98-56.73-13.7-61.67v-67.35
	c0-8.46-6.88-15.34-15.34-15.34h-0.58c-8.46,0-15.35,6.88-15.35,15.34v53.36c0,41.12,3.15,59.36,5.78,67.43
	c5.14,16.38,14.03,29.22,26.45,38.21c12.43,9,24.37,13.57,45.34,13.57h0.72h0.72c20.97,0,32.91-4.57,45.34-13.57
	c12.42-8.99,21.31-21.83,26.45-38.21c2.63-8.07,5.78-26.31,5.78-67.43v-53.36C832.3,142.36,825.41,135.48,816.95,135.48z"/>
<path d="M639.68,79.41v228.65c0,8.45-6.88,15.33-15.34,15.33c-8.45,0-15.33-6.88-15.33-15.33V79.41c0-8.46,6.88-15.34,15.33-15.34
	C632.79,64.07,639.68,70.95,639.68,79.41z"/>
<path d="M483.91,135.48c-49.11,0-89.06,42.15-89.06,93.96s39.95,93.95,89.06,93.95c15.42,0,30.66-4.3,44.13-12.48
	c3.47-2.27,6.78-4.84,9.85-7.63c1.39-1.25,2.73-2.57,4.03-3.92l0.25,9.02c0.17,7.88,6.27,14.46,13.89,14.98
	c0.34,0.02,0.69,0.03,1.04,0.03h0.6c8.42,0,15.26-6.86,15.26-15.29v-78.66C572.96,177.63,533.01,135.48,483.91,135.48z
	 M483.91,292.22c-31.96,0-57.96-28.16-57.96-62.78s26-62.79,57.96-62.79c31.94,0,57.92,28.17,57.92,62.79
	S515.85,292.22,483.91,292.22z"/>
<path d="M1124.88,144.94c-0.12-0.06-0.24-0.12-0.36-0.18c-0.13-0.07-0.27-0.13-0.4-0.2c-11.57-5.82-24.52-9.08-38.17-9.08
	c0,0,0,0-0.01,0h-0.03c-0.89,0-1.77,0.02-2.65,0.04l-0.6,0.03c-0.78,0.03-1.55,0.07-2.32,0.12c-0.1,0.01-0.2,0.01-0.3,0.02
	c-46.36,3.22-83.14,44.03-83.15,93.74v0.01c0,37.09,20.47,69.22,50.12,84.48c0.12,0.06,0.24,0.13,0.36,0.19
	c0.13,0.07,0.27,0.13,0.4,0.2c11.57,5.81,24.52,9.08,38.17,9.08c0.01,0,0.01,0,0.01,0h0.03c0.89,0,1.77-0.02,2.65-0.05
	c0.2-0.01,0.4-0.02,0.6-0.02c0.78-0.03,1.55-0.07,2.32-0.12c0.1-0.01,0.2-0.02,0.3-0.02c46.36-3.22,83.14-44.03,83.15-93.74v-0.01
	C1175,192.34,1154.53,160.21,1124.88,144.94z M1105.85,288.4c-6.21,2.47-12.92,3.82-19.91,3.82c-4.32,0-8.54-0.54-12.6-1.52
	c-25.9-6.25-45.32-31.34-45.32-61.27c0-27.05,15.86-50.15,38.02-58.97c6.21-2.46,12.92-3.81,19.9-3.81c4.33,0,8.55,0.53,12.61,1.51
	c25.9,6.26,45.32,31.35,45.32,61.28C1143.87,256.48,1128.01,279.59,1105.85,288.4z"/>
<path d="M970.35,296.81c6.21,5.75,6.59,15.45,0.84,21.66c-3.02,3.27-7.13,4.92-11.25,4.92c-3.72,0-7.47-1.35-10.41-4.08
	l-52.59-46.37l-0.02,35.12c0,8.8-7.4,15.87-16.33,15.3c-8.16-0.51-14.33-7.63-14.33-15.82l0.02-228.16c0-8.8,7.43-15.88,16.36-15.28
	c8.14,0.52,14.3,7.65,14.3,15.82v122.43l52.47-49.28c6.16-5.81,15.87-5.53,21.68,0.63c5.81,6.16,5.53,15.85-0.63,21.68l-63.31,59.5
	c-1.67,1.56-1.66,4.22,0.02,5.78L970.35,296.81z"/>
<g>
	<g>
		<path d="M1313.21,280.36c-0.61,5.22-2.18,10.31-4.88,15.02c-6.18,10.78-16.78,19.19-28.42,23.82c-1.89,0.75-3.82,1.4-5.79,1.92
			c-15.79,4.13-32.59,2.09-47.83-3.18c-5.65-1.96-11.24-4.29-16.28-7.43c-4.51-2.81-7.88-7.61-8.15-12.92
			c-0.34-6.69,4.92-13.46,11.74-14.16c5.3-0.54,10.26,2.28,14.99,4.66c10.48,5.28,22.56,8.92,34.02,6.24
			c11-2.57,21.16-14.61,19.78-24.85c-1.1-8.17-9.47-14.25-13.29-17.02c-1.91-1.39-4.65-2.81-10.05-5.59
			c-12.19-6.27-18.28-9.41-18.72-9.63c-13.29-6.67-23.15-11.62-30.76-20.27c-2.38-2.71-14.63-16.61-12.79-36.53
			c1.22-13.2,8.41-25.78,19.27-33.7c9.35-6.82,21-10.14,32.63-11.01c15.91-1.18,32.14,2.09,46.28,9.34
			c6.38,3.27,12.84,8.01,13.74,15.2c0.81,6.44-3.45,12.65-9.85,14.39c-6.48,1.76-12.14-1.61-17.65-4.38
			c-10.1-5.07-21.7-8.49-32.79-6.11c-10.6,2.28-21.07,12.78-20.61,23.1c0.36,8.02,7.27,13.98,9.45,15.86
			c3.62,3.12,8.17,5.2,17.28,9.38c3.73,1.71,8.14,3.67,8.14,3.67c0.01,0.01,0.02,0.01,0.02,0.01c0.05,0.02,0.08,0.03,0.08,0.04
			c17.25,7.64,36.77,18.58,45.22,36.04C1312.24,260.96,1314.32,270.86,1313.21,280.36z"/>
	</g>
</g>
<path d="M240.13,141.63C286.24,98.81,317.62,44.74,315.88,0C225.49,72.74,133.03,113.48,35.92,72.46
	C17.03,102.11,6.26,137.44,0,176.01c9.92-7.03,24.74-14.63,42.51-14.63c23.06,0,29.64,16.47,55.99,23.06
	c26.35,6.59,49.4-9.88,49.4-9.88s-24.49,27.25-54.13,20.66c-29.64-6.59-28.9-19.78-55.24-19.78c-9.57,0-18.46,4.51-26.5,9.71
	c-0.51,10.64-0.3,24.91,4.7,44.92c4.31,17.25,14.93,37.38,20.36,46.46c-1.32-12.14,4.92-24.34,16.52-30
	c4.87-2.38,10.29-3.12,15.61-2.42c9.22,1.22,18.91,8.49,23.71,13.16c29.63,28.85,24.09,85.43,16.63,130.19
	c0,0,52.47-12.11,80.72-68.61l36.32,20.18c20.18-44.39,4.04-104.93,4.04-104.93l40.36,12.11
	C266.94,197.77,240.13,141.63,240.13,141.63z M105.51,153.38c-20.18,0-24.21-12.11-40.36-12.11c0,0,20.99-20.55,44.39-16.14
	C122.78,127.62,125.69,153.38,105.51,153.38z"/>
</svg>
